<svg width="70" height="50" viewBox="0 0 70 50" fill="none" xmlns="http://www.w3.org/2000/svg">
<path d="M2.56348 49.308V44.1042L8.73913 43.0903V6.3595L2.56348 5.34577V0.108154H8.73913H29.0916C33.3123 0.108154 36.9244 0.750185 39.9281 2.03424C42.9577 3.31831 45.2751 5.10923 46.8805 7.40703C48.486 9.68229 49.2888 12.3518 49.2888 15.4155C49.2888 18.4793 48.486 21.1601 46.8805 23.4578C45.2751 25.7331 42.9577 27.5014 39.9281 28.763C36.9244 30.0246 33.3123 30.6554 29.0916 30.6554H18.527V43.0903L24.7026 44.1042V49.308H2.56348ZM18.527 24.0661H29.0916C32.5613 24.0661 35.1637 23.255 36.8986 21.6331C38.6334 20.0111 39.5009 17.9611 39.5009 15.4831C39.5009 12.96 38.6334 10.865 36.8986 9.19796C35.1637 7.53092 32.5613 6.69741 29.0916 6.69741H18.527V24.0661Z" fill="black"/>
<path d="M51.7898 25.7873C51.4661 25.7873 51.0906 25.7703 50.6635 25.7366C50.249 25.7141 49.9577 25.6914 49.7895 25.6689L49.8089 22.4419C49.9513 22.4532 50.2103 22.4701 50.5857 22.4926C50.9741 22.5039 51.2654 22.5094 51.4597 22.5094C52.4435 22.5094 53.1622 22.3124 53.6152 21.9182C54.0813 21.5127 54.5216 20.8874 54.9358 20.0428L55.499 18.9108L47.3424 3.78923L44.6431 3.45133V0.83252H54.7998V3.45133L52.5861 3.75544L56.6449 11.8991L57.6352 14.0955H57.7518L62.1989 3.80614L60.0435 3.45133V0.83252H69.9672V3.45133L67.4426 3.77235L59.0917 21.0395C58.5609 22.0646 57.9914 22.9319 57.3829 23.6414C56.7743 24.3511 56.0234 24.8861 55.1301 25.2466C54.2496 25.607 53.1363 25.7873 51.7898 25.7873Z" fill="black"/>
<path d="M37.8963 49.9202C35.8086 49.9202 34.022 49.5357 32.5363 48.767C31.0603 47.9899 29.9292 46.9086 29.1427 45.5231C28.3659 44.1292 27.9775 42.5115 27.9775 40.6698V40.201C27.9775 38.4017 28.3659 36.8093 29.1427 35.4238C29.9194 34.0299 31.0313 32.9359 32.478 32.1418C33.925 31.3394 35.6533 30.938 37.6634 30.938C39.0713 30.938 40.3773 31.1196 41.5814 31.483C42.7853 31.8461 43.8341 32.3572 44.7274 33.0162V37.2738H41.931L41.5522 34.4228C41.2318 34.22 40.8774 34.0468 40.489 33.9032C40.1005 33.7596 39.6733 33.6498 39.2072 33.5738C38.7508 33.4977 38.2508 33.4596 37.7069 33.4596C36.435 33.4596 35.3427 33.7385 34.4299 34.2959C33.5268 34.8536 32.8374 35.635 32.3615 36.6402C31.8858 37.6456 31.648 38.824 31.648 40.1757V40.6698C31.648 42.0722 31.9003 43.2802 32.4052 44.294C32.9102 45.2992 33.6336 46.0722 34.5754 46.6129C35.527 47.1536 36.6631 47.4238 37.9838 47.4238C38.6247 47.4238 39.2557 47.3605 39.8771 47.2338C40.5083 47.0985 41.0618 46.9255 41.5377 46.7143L41.931 44.1292H44.6984V48.3615C43.8827 48.8262 42.8826 49.2022 41.6979 49.4894C40.5229 49.7766 39.2557 49.9202 37.8963 49.9202ZM57.2389 49.9202C55.1513 49.9202 53.3647 49.5357 51.879 48.767C50.403 47.9899 49.2719 46.9086 48.4852 45.5231C47.7084 44.1292 47.32 42.5115 47.32 40.6698V40.201C47.32 38.4017 47.7084 36.8093 48.4852 35.4238C49.2621 34.0299 50.374 32.9359 51.8207 32.1418C53.2674 31.3394 54.9959 30.938 57.0059 30.938C58.4138 30.938 59.72 31.1196 60.9239 31.483C62.128 31.8461 63.1766 32.3572 64.0701 33.0162V37.2738H61.2735L60.8948 34.4228C60.5745 34.22 60.2199 34.0468 59.8315 33.9032C59.4431 33.7596 59.016 33.6498 58.5498 33.5738C58.0935 33.4977 57.5933 33.4596 57.0496 33.4596C55.7775 33.4596 54.6851 33.7385 53.7723 34.2959C52.8693 34.8536 52.18 35.635 51.7042 36.6402C51.2283 37.6456 50.9904 38.824 50.9904 40.1757V40.6698C50.9904 42.0722 51.243 43.2802 51.7479 44.294C52.2528 45.2992 52.9763 46.0722 53.9181 46.6129C54.8697 47.1536 56.0058 47.4238 57.3264 47.4238C57.9672 47.4238 58.5984 47.3605 59.2198 47.2338C59.851 47.0985 60.4044 46.9255 60.8803 46.7143L61.2735 44.1292H64.0409V48.3615C63.2253 48.8262 62.225 49.2022 61.0404 49.4894C59.8655 49.7766 58.5984 49.9202 57.2389 49.9202Z" fill="black"/>
</svg>
