<svg width="400" height="100" viewBox="0 0 400 100" fill="none" xmlns="http://www.w3.org/2000/svg">
<path d="M0 50L1 49.2618L2 48.5237L3 47.786L4 47.0488L5 46.3124L6 45.5769L7 44.8425L8 44.1093L9 43.3776L10 42.6476L11 41.9193L12 41.1931L13 40.469L14 39.7473L15 39.0281L16 38.3116L17 37.598L18 36.8874L19 36.1801L20 35.4762L21 34.7759L22 34.0793L23 33.3867L24 32.6981L25 32.0139L26 31.334L27 30.6588L28 29.9884L29 29.3229L30 28.6624L31 28.0073L32 27.3576L33 26.7134L34 26.0751L35 25.4426L36 24.8161L37 24.1959L38 23.5821L39 22.9748L40 22.3741L41 21.7803L42 21.1934L43 20.6136L44 20.0411L45 19.4759L46 18.9183L47 18.3684L48 17.8263L49 17.2921L50 16.766L51 16.2481L52 15.7385L53 15.2373L54 14.7448L55 14.2609L56 13.7859L57 13.3198L58 12.8627L59 12.4148L60 11.9762L61 11.547L62 11.1272L63 10.7171L64 10.3166L65 9.92591L66 9.54512L67 9.17432L68 8.81359L69 8.46302L70 8.12269L71 7.79271L72 7.47313L73 7.16405L74 6.86553L75 6.57766L76 6.30051L77 6.03413L78 5.7786L79 5.53399L80 5.30034L81 5.07773L82 4.8662L83 4.6658L84 4.47659L85 4.29861L86 4.13191L87 3.97653L88 3.8325L89 3.69986L90 3.57865L91 3.46889L92 3.37061L93 3.28384L94 3.20859L95 3.14489L96 3.09274L97 3.05218L98 3.02319L99 3.0058L100 3L101 3.0058L102 3.02319L103 3.05218L104 3.09274L105 3.14489L106 3.20859L107 3.28384L108 3.37061L109 3.46889L110 3.57865L111 3.69986L112 3.8325L113 3.97653L114 4.13191L115 4.29861L116 4.47659L117 4.6658L118 4.8662L119 5.07773L120 5.30034L121 5.53399L122 5.7786L123 6.03413L124 6.30051L125 6.57766L126 6.86553L127 7.16405L128 7.47313L129 7.79271L130 8.12269L131 8.46302L132 8.81359L133 9.17432L134 9.54512L135 9.92591L136 10.3166L137 10.7171L138 11.1272L139 11.547L140 11.9762L141 12.4148L142 12.8627L143 13.3198L144 13.7859L145 14.2609L146 14.7448L147 15.2373L148 15.7385L149 16.2481L150 16.766L151 17.2921L152 17.8263L153 18.3684L154 18.9183L155 19.4759L156 20.0411L157 20.6136L158 21.1934L159 21.7803L160 22.3741L161 22.9748L162 23.5821L163 24.1959L164 24.8161L165 25.4426L166 26.0751L167 26.7134L168 27.3576L169 28.0073L170 28.6624L171 29.3229L172 29.9884L173 30.6588L174 31.334L175 32.0139L176 32.6981L177 33.3867L178 34.0793L179 34.7759L180 35.4762L181 36.1801L182 36.8874L183 37.598L184 38.3116L185 39.0281L186 39.7473L187 40.469L188 41.1931L189 41.9193L190 42.6476L191 43.3776L192 44.1093L193 44.8425L194 45.5769L195 46.3124L196 47.0488L197 47.786L198 48.5237L199 49.2618L200 50L201 50.7382L202 51.4763L203 52.214L204 52.9512L205 53.6876L206 54.4231L207 55.1575L208 55.8907L209 56.6224L210 57.3524L211 58.0807L212 58.8069L213 59.531L214 60.2527L215 60.9719L216 61.6884L217 62.402L218 63.1126L219 63.8199L220 64.5238L221 65.2241L222 65.9207L223 66.6133L224 67.3019L225 67.9861L226 68.666L227 69.3412L228 70.0116L229 70.6771L230 71.3376L231 71.9927L232 72.6424L233 73.2866L234 73.9249L235 74.5574L236 75.1839L237 75.8041L238 76.4179L239 77.0252L240 77.6259L241 78.2198L242 78.8066L243 79.3864L244 79.9589L245 80.5241L246 81.0817L247 81.6316L248 82.1737L249 82.7079L250 83.234L251 83.7519L252 84.2615L253 84.7627L254 85.2552L255 85.7391L256 86.2141L257 86.6802L258 87.1373L259 87.5852L260 88.0238L261 88.453L262 88.8728L263 89.2829L264 89.6834L265 90.0741L266 90.4549L267 90.8257L268 91.1864L269 91.537L270 91.8773L271 92.2073L272 92.5269L273 92.836L274 93.1345L275 93.4223L276 93.6995L277 93.9659L278 94.2214L279 94.466L280 94.6997L281 94.9223L282 95.1338L283 95.3342L284 95.5234L285 95.7014L286 95.8681L287 96.0235L288 96.1675L289 96.3001L290 96.4214L291 96.5311L292 96.6294L293 96.7162L294 96.7914L295 96.8551L296 96.9073L297 96.9478L298 96.9768L299 96.9942L300 97L301 96.9942L302 96.9768L303 96.9478L304 96.9073L305 96.8551L306 96.7914L307 96.7162L308 96.6294L309 96.5311L310 96.4214L311 96.3001L312 96.1675L313 96.0235L314 95.8681L315 95.7014L316 95.5234L317 95.3342L318 95.1338L319 94.9223L320 94.6997L321 94.466L322 94.2214L323 93.9659L324 93.6995L325 93.4223L326 93.1345L327 92.836L328 92.5269L329 92.2073L330 91.8773L331 91.537L332 91.1864L333 90.8257L334 90.4549L335 90.0741L336 89.6834L337 89.2829L338 88.8728L339 88.453L340 88.0238L341 87.5852L342 87.1373L343 86.6802L344 86.2141L345 85.7391L346 85.2552L347 84.7627L348 84.2615L349 83.7519L350 83.234L351 82.7079L352 82.1737L353 81.6316L354 81.0817L355 80.5241L356 79.9589L357 79.3864L358 78.8066L359 78.2198L360 77.6259L361 77.0252L362 76.4179L363 75.8041L364 75.1839L365 74.5574L366 73.9249L367 73.2866L368 72.6424L369 71.9927L370 71.3376L371 70.6771L372 70.0116L373 69.3412L374 68.666L375 67.9861L376 67.3019L377 66.6133L378 65.9207L379 65.2241L380 64.5238L381 63.8199L382 63.1126L383 62.402L384 61.6884L385 60.9719L386 60.2527L387 59.531L388 58.8069L389 58.0807L390 57.3524L391 56.6224L392 55.8907L393 55.1575L394 54.4231L395 53.6876L396 52.9512L397 52.214L398 51.4763L399 50.7382" stroke="black" stroke-width="5" stroke-miterlimit="10" stroke-linecap="round" stroke-linejoin="round"/>
</svg>
